<?xml version="1.0" standalone="no"?>
<!DOCTYPE svg PUBLIC "-//W3C//DTD SVG 20010904//EN"
 "http://www.w3.org/TR/2001/REC-SVG-20010904/DTD/svg10.dtd">
<svg version="1.0" xmlns="http://www.w3.org/2000/svg"
 width="459.000000pt" height="401.000000pt" viewBox="0 0 459.000000 401.000000"
 preserveAspectRatio="xMidYMid meet">

<g transform="translate(0.000000,401.000000) scale(0.100000,-0.100000)"
fill="#000000" stroke="none">
<path d="M2905 3816 c-16 -8 -39 -21 -50 -31 -11 -9 -14 -14 -7 -10 19 10 14
-10 -16 -62 -25 -43 -105 -216 -182 -393 -117 -270 -146 -334 -178 -405 -58
-127 -191 -395 -196 -395 -3 0 18 48 45 108 101 216 238 543 325 776 57 151
107 260 141 304 15 20 21 32 15 28 -23 -14 -93 -116 -183 -266 -180 -303 -344
-516 -484 -630 -89 -72 -167 -116 -241 -136 -63 -16 -150 -62 -178 -93 -17
-19 -17 -20 18 -26 44 -9 53 -21 31 -45 -21 -23 -125 -70 -161 -72 -37 -2 -67
-30 -166 -151 l-80 -98 64 -61 c34 -33 52 -53 38 -44 -13 9 -27 16 -31 16 -3
0 -2 -28 3 -62 5 -35 10 -124 11 -198 3 -191 -12 -298 -65 -483 -34 -119 -40
-127 -165 -204 -32 -19 -49 -32 -38 -29 10 4 40 10 65 13 28 4 58 17 80 35 45
36 62 36 26 0 l-27 -29 44 -17 c102 -39 204 -165 322 -398 37 -73 69 -134 70
-136 1 -1 22 9 46 22 90 50 249 76 462 76 180 0 346 27 330 54 -4 5 1 7 11 3
10 -4 15 -3 11 3 -3 6 0 10 7 10 10 0 9 3 -2 11 -12 9 -11 10 6 6 16 -3 21 0
19 12 -1 9 7 27 19 40 11 13 15 21 9 17 -7 -4 -13 -3 -13 3 0 5 6 14 14 18 22
12 113 129 122 155 4 13 12 27 19 33 14 11 39 88 61 190 40 187 44 304 28 885
-17 665 -6 1058 36 1295 22 125 42 175 69 175 87 0 190 -453 286 -1255 9 -77
23 -174 30 -215 18 -97 42 -243 50 -300 7 -55 37 -205 63 -320 11 -47 25 -124
32 -171 l13 -86 63 -6 c68 -5 160 -42 241 -98 58 -41 210 -171 370 -321 68
-62 137 -122 154 -132 l31 -18 -15 28 c-117 226 -474 1172 -742 1965 -155 456
-245 678 -355 868 -115 200 -233 289 -325 247z"/>
<path d="M2676 707 c3 -10 9 -15 12 -12 3 3 0 11 -7 18 -10 9 -11 8 -5 -6z"/>
<path d="M2711 684 c0 -11 3 -14 6 -6 3 7 2 16 -1 19 -3 4 -6 -2 -5 -13z"/>
</g>
</svg>
